<svg width="764" height="545" viewBox="0 0 764 545" fill="none" xmlns="http://www.w3.org/2000/svg">
<path d="M735.816 365.23H615.033" stroke="#D9D9D9" stroke-width="1.5" stroke-miterlimit="10"/>
<path d="M615.033 243.442H735.816" stroke="#D9D9D9" stroke-width="1.5" stroke-miterlimit="10"/>
<path d="M314.229 243.442H440.813" stroke="#D9D9D9" stroke-width="1.5" stroke-miterlimit="10"/>
<path d="M144.858 292.353V252.556" stroke="#626262" stroke-width="1.5" stroke-miterlimit="10"/>
<path d="M1 56.512H29.4778" stroke="#626262" stroke-width="1.5" stroke-miterlimit="10"/>
<path d="M733.971 56.512H762.436" stroke="#626262" stroke-width="1.5" stroke-miterlimit="10"/>
<path d="M219.141 503.868V307.462H144.858V292.353" stroke="#D9D9D9" stroke-width="1.5" stroke-miterlimit="10"/>
<path d="M261.786 503.868V243.442H205.836V104.921" stroke="#D9D9D9" stroke-width="1.5" stroke-miterlimit="10"/>
<path d="M477.13 503.868V373.649H263.656" stroke="#D9D9D9" stroke-width="1.5" stroke-miterlimit="10"/>
<path d="M615.033 386.54V309.383" stroke="#D9D9D9" stroke-width="1.5" stroke-miterlimit="10"/>
<path d="M494.29 243.442H543.575V56.512H25.0439V243.442" stroke="#D9D9D9" stroke-width="1.5" stroke-miterlimit="10"/>
<path d="M378.186 56.2798V243.442H321.952" stroke="#D9D9D9" stroke-width="1.5" stroke-miterlimit="10"/>
<path d="M582.791 243.442V56.512H735.816V528.182" stroke="#D9D9D9" stroke-width="1.5" stroke-miterlimit="10"/>
<path d="M615.033 527.047V420.445H527.537V528.182H615.033H762.437V1H1V226.786V392.548H145.993V503.868H219" stroke="#D9D9D9" stroke-width="1.5" stroke-miterlimit="10"/>
<path d="M582.791 205.076H631.883" stroke="#D9D9D9" stroke-width="1.5" stroke-miterlimit="10"/>
<path d="M477.13 528.181V522.174V503.868H261" stroke="#D9D9D9" stroke-width="1.5" stroke-miterlimit="10"/>
<path d="M144.859 258.332V243.442H64.9172H144.859H1" stroke="#D9D9D9" stroke-width="1.5" stroke-miterlimit="10"/>
<path opacity="0.2" d="M102 169C113.598 169 123 159.374 123 147.5C123 135.626 113.598 126 102 126C90.402 126 81 135.626 81 147.5C81 159.374 90.402 169 102 169Z" fill="#D9D9D9"/>
<path opacity="0.2" d="M292 169C303.598 169 313 159.374 313 147.5C313 135.626 303.598 126 292 126C280.402 126 271 135.626 271 147.5C271 159.374 280.402 169 292 169Z" fill="#D9D9D9"/>
<path opacity="0.2" d="M465 169C476.598 169 486 159.374 486 147.5C486 135.626 476.598 126 465 126C453.402 126 444 135.626 444 147.5C444 159.374 453.402 169 465 169Z" fill="#D9D9D9"/>
<path opacity="0.2" d="M664 169C675.598 169 685 159.374 685 147.5C685 135.626 675.598 126 664 126C652.402 126 643 135.626 643 147.5C643 159.374 652.402 169 664 169Z" fill="#D9D9D9"/>
<path opacity="0.2" d="M678 331C689.598 331 699 321.374 699 309.5C699 297.626 689.598 288 678 288C666.402 288 657 297.626 657 309.5C657 321.374 666.402 331 678 331Z" fill="#D9D9D9"/>
<path opacity="0.2" d="M678 469C689.598 469 699 459.374 699 447.5C699 435.626 689.598 426 678 426C666.402 426 657 435.626 657 447.5C657 459.374 666.402 469 678 469Z" fill="#D9D9D9"/>
<path opacity="0.2" d="M565 406C576.598 406 586 396.374 586 384.5C586 372.626 576.598 363 565 363C553.402 363 544 372.626 544 384.5C544 396.374 553.402 406 565 406Z" fill="#D9D9D9"/>
<path opacity="0.2" d="M564 52C575.598 52 585 42.3741 585 30.5C585 18.6259 575.598 9 564 9C552.402 9 543 18.6259 543 30.5C543 42.3741 552.402 52 564 52Z" fill="#D9D9D9"/>
<path d="M100.873 142.915H97V141.469C99.1731 141.418 101.039 140.611 101.372 138H103.046V155.843H100.873V142.915Z" fill="white"/>
<path d="M292.66 147.856C294.986 146.512 296.405 145.603 296.405 143.453C296.405 141.302 294.909 139.805 292.557 139.805C291.318 139.805 290.384 140.214 289.733 140.918C289.029 141.674 288.723 142.659 288.723 144.464H286.447C286.447 142.186 287.048 140.739 288.122 139.651C289.26 138.538 290.921 138 292.724 138C296.316 138 298.642 140.278 298.642 143.44C298.642 146.857 296.316 147.997 293.465 149.571C291.548 150.633 289.093 152.08 288.608 154.051H298.284V156.124H286C286.205 151.389 289.541 149.648 292.647 147.869L292.66 147.856Z" fill="white"/>
<path d="M458 150.301H460.148C460.224 153.155 462.065 154.729 464.979 154.729C467.434 154.729 469.172 153.513 469.172 151.005C469.172 148.752 467.498 147.561 464.519 147.561H463.407V145.872H464.494C467.267 145.872 468.661 144.707 468.661 142.813C468.661 140.918 466.922 139.702 464.813 139.702C462.257 139.702 460.723 141.354 460.723 143.824H458.601C458.626 140.33 460.978 138 464.89 138C468.175 138 470.783 139.792 470.783 142.864C470.783 144.861 469.568 146.025 467.855 146.589V146.665C470.335 147.318 471.422 148.893 471.422 151.197C471.422 154.588 468.648 156.534 465.056 156.534C461.157 156.534 458.077 154.332 458 150.288V150.301Z" fill="white"/>
<path d="M665.36 152.568H657V150.622L665.769 139H667.482V150.84H670.409V152.581H667.482V156.932H665.36V152.581V152.568ZM659.109 150.827H665.373V142.52H665.322L659.109 150.75V150.827Z" fill="white"/>
<path d="M672.013 312.621H674.16C674.441 314.822 676.001 316.217 678.506 316.217C681.012 316.217 682.674 314.502 682.674 311.917C682.674 309.331 680.833 307.693 678.506 307.693C676.589 307.693 675.272 308.473 674.518 309.536H672.422L674.39 300H683.824V301.946H675.912L674.748 307.283H674.799C675.809 306.323 677.151 305.785 678.864 305.785C682.022 305.785 684.885 308.038 684.885 311.981C684.885 315.923 682.201 318.15 678.519 318.15C674.838 318.15 672.153 315.923 672 312.633L672.013 312.621Z" fill="white"/>
<path d="M674.505 454.96C672.614 453.257 672 450.813 672 447.165C672 441.648 674.352 438 678.851 438C682.392 438 684.156 440.355 684.437 442.915H682.29C682.137 441.226 680.948 439.83 678.903 439.83C675.439 439.83 674.199 442.634 674.122 446.973H674.173C675.311 445.398 676.909 444.515 679.03 444.515C682.29 444.515 684.847 447.203 684.872 450.467C684.898 453.782 682.239 456.521 678.928 456.521C676.985 456.521 675.566 455.92 674.505 454.947V454.96ZM682.852 450.557C682.852 448.048 681.088 446.307 678.788 446.307C676.257 446.307 674.493 447.997 674.493 450.531C674.493 453.065 676.384 454.781 678.864 454.781C681.165 454.781 682.852 453.065 682.852 450.557Z" fill="white"/>
<path d="M569.111 377.997V377.946H559V376H571.386V377.792C567.769 380.979 564.203 386.701 563.832 393.74H561.505C561.889 387.545 565.123 381.21 569.111 377.997Z" fill="white"/>
<path d="M557.013 34.0942C557.013 31.5342 558.662 30.1262 560.656 29.4862V29.4094C559.007 28.7823 557.882 27.4639 557.882 25.6335C557.882 22.8048 560.439 21 563.698 21C566.958 21 569.514 22.792 569.514 25.6335C569.514 27.4767 568.453 28.7695 566.804 29.4094V29.4862C568.798 30.0878 570.396 31.6878 570.396 34.0942C570.396 38.1389 567.034 39.5597 563.775 39.5597C560.515 39.5597 557 38.1133 557 34.0942H557.013ZM568.236 34.0942C568.236 31.7646 566.549 30.3182 563.711 30.3182C560.873 30.3182 559.237 31.7646 559.237 34.0942C559.237 36.4237 560.937 37.7421 563.788 37.7421C566.638 37.7421 568.236 36.3725 568.236 34.0942ZM567.405 25.6975C567.405 23.8799 565.986 22.792 563.711 22.792C561.436 22.792 560.017 23.8799 560.017 25.6975C560.017 27.5151 561.436 28.6031 563.711 28.6031C565.986 28.6031 567.405 27.5151 567.405 25.6975Z" fill="white"/>
<path d="M70.5059 276.417C67.8444 278.025 66.0646 280.945 66.0645 284.281C66.0645 289.35 70.1745 293.46 75.2441 293.46C78.2891 293.46 80.9853 291.976 82.6553 289.694L83.3428 290.445C81.4831 292.884 78.5486 294.46 75.2441 294.46C69.6222 294.46 65.0645 289.903 65.0645 284.281C65.0646 280.654 66.9632 277.471 69.8193 275.668L70.5059 276.417Z" fill="#D9D9D9"/>
<path d="M74.2373 268.95V278.577H83.8283L88.3714 290.53L92.4097 289.217" stroke="#D9D9D9"/>
<path d="M82.4425 272.358H76.7637" stroke="#D9D9D9"/>
<circle cx="74.2374" cy="263.272" r="2.77155" stroke="#D9D9D9"/>
<path d="M228 531L239 517L249 531" stroke="#D9D9D9" stroke-width="1.5"/>
<path d="M239 531V545" stroke="#D9D9D9" stroke-width="1.5"/>
<path d="M176 69L190 80L176 90" stroke="#D9D9D9" stroke-width="1.5"/>
<path d="M176 80L162 80" stroke="#D9D9D9" stroke-width="1.5"/>
<path d="M298 224L287 238L277 224" stroke="#D9D9D9" stroke-width="1.5"/>
<path d="M287 224L287 210" stroke="#D9D9D9" stroke-width="1.5"/>
<path d="M574 268L563 254L553 268" stroke="#D9D9D9" stroke-width="1.5"/>
<path d="M563 268L563 282" stroke="#D9D9D9" stroke-width="1.5"/>
<path d="M492 385L503 399L513 385" stroke="#D9D9D9" stroke-width="1.5"/>
<path d="M503 385L503 371" stroke="#D9D9D9" stroke-width="1.5"/>
<path d="M355 327.5L358.5 336.5" stroke="#D4D4D4"/>
<path d="M353 321L354 324" stroke="#D4D4D4"/>
<path d="M368.5 335.5C366.833 335 363 334.556 360.5 336C358.002 337.442 354.833 337 353.5 336.5" stroke="#D4D4D4"/>
<path d="M350.56 331.5L370.44 331.5L360.5 348.03L350.56 331.5Z" stroke="#D9D9D9"/>
<path d="M360.5 347.5V360H366" stroke="#D4D4D4"/>
<path d="M355 360L360.5 360" stroke="#D4D4D4"/>
<circle cx="354.5" cy="325.5" r="2" stroke="#D9D9D9"/>
</svg>
