<svg width="213" height="149" viewBox="0 0 213 149" fill="none" xmlns="http://www.w3.org/2000/svg">
<path d="M142.271 0H37.084C16.6031 0 0 16.6801 0 37.256C0 57.8319 16.6031 74.512 37.084 74.512H142.271C162.752 74.512 179.355 57.8319 179.355 37.256C179.355 16.6801 162.752 0 142.271 0Z" fill="url(#paint0_linear_402_138)"/>
<path d="M70.7294 149L175.916 149C196.397 149 213 132.32 213 111.744C213 91.1681 196.397 74.488 175.916 74.488L70.7294 74.488C50.2484 74.488 33.6454 91.1681 33.6454 111.744C33.6454 132.32 50.2484 149 70.7294 149Z" fill="url(#paint1_linear_402_138)"/>
<defs>
<linearGradient id="paint0_linear_402_138" x1="179.331" y1="37.232" x2="0" y2="37.232" gradientUnits="userSpaceOnUse">
<stop stop-color="white"/>
<stop offset="0.17" stop-color="white" stop-opacity="0.71"/>
<stop offset="0.33" stop-color="white" stop-opacity="0.46"/>
<stop offset="0.48" stop-color="white" stop-opacity="0.26"/>
<stop offset="0.61" stop-color="white" stop-opacity="0.12"/>
<stop offset="0.72" stop-color="white" stop-opacity="0.03"/>
<stop offset="0.78" stop-color="white" stop-opacity="0"/>
</linearGradient>
<linearGradient id="paint1_linear_402_138" x1="33.6693" y1="111.744" x2="213" y2="111.744" gradientUnits="userSpaceOnUse">
<stop stop-color="white"/>
<stop offset="0.17" stop-color="white" stop-opacity="0.71"/>
<stop offset="0.33" stop-color="white" stop-opacity="0.46"/>
<stop offset="0.48" stop-color="white" stop-opacity="0.26"/>
<stop offset="0.61" stop-color="white" stop-opacity="0.12"/>
<stop offset="0.72" stop-color="white" stop-opacity="0.03"/>
<stop offset="0.78" stop-color="white" stop-opacity="0"/>
</linearGradient>
</defs>
</svg>
